<svg width="96" height="96" xmlns="http://www.w3.org/2000/svg" xmlns:xlink="http://www.w3.org/1999/xlink" overflow="hidden">
    <defs>
        <clipPath id="clip0">
            <rect x="576" y="134" width="96" height="96" />
        </clipPath>
    </defs>
    <g clip-path="url(#clip0)" transform="translate(-576 -134)">
        <path d="M666.6 214 627.5 146C626.437 144.095 624.03 143.412 622.124 144.476 621.485 144.833 620.957 145.36 620.6 146L581.4 214C580.304 215.927 580.977 218.379 582.905 219.475 583.513 219.821 584.201 220.002 584.9 220L663.1 220C665.317 220.005 667.12 218.212 667.125 215.995 667.127 215.296 666.946 214.608 666.6 214ZM664.839 217.019C664.48 217.637 663.815 218.012 663.1 218L584.9 218C584.185 218.012 583.519 217.637 583.161 217.018 582.788 216.4 582.777 215.628 583.133 215L622.348 146.971C622.877 146.032 624.067 145.699 625.006 146.228 625.328 146.408 625.591 146.676 625.766 147L664.852 214.971C665.219 215.606 665.214 216.389 664.839 217.019Z" fill="#FF0000" />
        <path d="M624 207.98C623.395 207.998 622.812 207.758 622.394 207.32 621.963 206.889 621.727 206.3 621.744 205.691 621.719 205.083 621.953 204.494 622.387 204.068 622.816 203.646 623.398 203.417 624 203.436 624.614 203.421 625.208 203.65 625.652 204.074 626.1 204.49 626.345 205.08 626.322 205.691 626.337 206.303 626.091 206.893 625.646 207.314 625.212 207.753 624.617 207.993 624 207.98Z" fill="#FF0000" />
        <path d="M622.901 196.6 622.578 164.787 625.289 164.787 624.966 196.6 622.901 196.6Z" fill="#FF0000" />
    </g>
</svg>